<svg width="25" height="24" viewBox="0 0 25 24" fill="#676767" xmlns="http://www.w3.org/2000/svg">
<path d="M3.67188 7.44043L12.5019 12.5504L21.2719 7.47043M12.5019 21.6104V12.5404" stroke="#676767" strokeWidth="1.5" strokeLinecap="round" strokeLinejoin="round"/>
<path d="M10.4306 2.48L5.09063 5.45C3.88063 6.12 2.89062 7.8 2.89062 9.18V14.83C2.89062 16.21 3.88063 17.89 5.09063 18.56L10.4306 21.53C11.5706 22.16 13.4406 22.16 14.5806 21.53L19.9206 18.56C21.1306 17.89 22.1206 16.21 22.1206 14.83V9.18C22.1206 7.8 21.1306 6.12 19.9206 5.45L14.5806 2.48C13.4306 1.84 11.5706 1.84 10.4306 2.48Z" stroke="#676767" strokeWidth="1.5" strokeLinecap="round" strokeLinejoin="round"/>
<path d="M17.5017 13.2396V9.57961L8.01172 4.09961" stroke="#676767" strokeWidth="1.5" strokeLinecap="round" strokeLinejoin="round"/>
</svg>