<svg width="30" height="27" viewBox="0 0 30 27" fill="none" xmlns="http://www.w3.org/2000/svg">
<path d="M14.7309 0.0672436C13.8884 0.307398 13.3813 1.45054 13.6921 2.41116C13.8557 2.91068 14.2319 3.38139 14.6 3.53509L14.8699 3.65036L14.7472 4.04422C14.6 4.55334 14.1747 6.52262 14.1011 7.05096C14.052 7.43521 14.0029 7.49285 13.3404 8.02119L12.6288 8.58796L12.1789 8.11725C11.3446 7.22387 9.95417 6.60908 8.80908 6.59947C8.08112 6.59947 7.1405 6.85884 6.42073 7.2719C5.8809 7.5697 5.55373 7.87709 4.5395 8.9722C3.8688 9.70228 3.13266 10.4996 2.89546 10.7494L2.47014 11.2105H1.47227C0.482577 11.2105 0.474398 11.2105 0.237199 11.489C0.106331 11.6427 0 11.8252 0 11.9021C0 11.9693 0.417143 13.7657 0.932437 15.8887L1.85669 19.76L1.66039 20.0962C1.1451 20.9896 0.916078 22.1904 1.06331 23.2663C1.46409 26.2346 4.13053 27.858 6.42891 26.5324C7.3777 25.9848 8.21199 24.7744 8.38375 23.6697L8.44101 23.3143H11.1565H13.872L14.0193 23.8907C14.8208 27.0223 18.1662 28.0405 20.1864 25.7735L20.6608 25.2451L24.8323 25.2163L29.0037 25.1875L29.3063 24.9473C29.8952 24.4766 30.157 23.4872 29.9034 22.6899C29.748 22.2288 29.3145 21.7197 28.9873 21.6236C28.8728 21.5852 28.7992 21.5083 28.8156 21.4411C28.9383 21.076 29.3799 19.0972 29.519 18.271C29.8707 16.2345 29.9689 15.0049 29.9689 12.6034C29.9689 9.59661 29.6989 7.28151 29.0446 4.63019C28.9137 4.10185 28.8074 3.66957 28.8156 3.66957C28.971 3.65997 29.5353 3.19887 29.7235 2.92029C29.9607 2.57446 29.977 2.48801 29.977 1.80597C29.977 1.14314 29.9525 1.01826 29.7562 0.720465C29.6335 0.537947 29.3963 0.297792 29.2245 0.201731C28.9301 0.0288181 28.6029 0.0192127 21.9613 0C18.1416 0 14.8863 0.0192127 14.7309 0.0672436ZM28.8074 1.74833C29.0201 2.29589 29.3309 2.27667 21.8468 2.27667C14.7472 2.27667 14.8045 2.27667 14.8045 1.89242C14.8045 1.50817 14.7472 1.50817 21.855 1.50817H28.7092L28.8074 1.74833ZM27.8013 4.70704C28.5947 7.75221 28.9055 10.7301 28.7747 13.9963C28.6929 16.1769 28.3494 18.4343 27.785 20.5477L27.5151 21.5371L24.4069 21.566L21.2988 21.5852L21.1516 21.0856C21.0698 20.8071 20.9062 20.4132 20.7835 20.2019L20.5627 19.8272L20.8162 18.7129L21.078 17.5986L21.8877 17.5409C23.8835 17.3872 25.323 16.0232 25.8056 13.8329C26.509 10.6821 24.2352 7.51206 21.4706 7.78103C20.8408 7.84828 20.4073 8.00198 19.7448 8.39583L19.3276 8.64559L18.8859 8.25174C18.0271 7.49285 16.9638 7.08939 15.8187 7.07978H15.2298L15.5079 5.94625C15.6633 5.33145 15.8432 4.57256 15.925 4.26516L16.0559 3.7176H21.7978H27.5396L27.8013 4.70704ZM10.404 8.49189C10.7803 8.71284 11.2056 9.03945 11.3528 9.22197L11.6309 9.55818L10.7885 10.3843L9.94599 11.2105H7.09961C5.53737 11.2105 4.25322 11.1912 4.25322 11.172C4.25322 11.1528 4.7358 10.6053 5.32471 9.97125C6.85423 8.30937 7.36952 8.02119 8.80908 8.06922C9.69244 8.09804 9.74969 8.11725 10.404 8.49189ZM16.9556 8.6648C17.8717 8.94338 18.4443 9.4333 19.2213 10.6053L19.6303 11.2105H15.7287C13.3895 11.2105 11.8599 11.172 11.909 11.124C12.3671 10.6053 13.9457 9.15472 14.2319 8.99142C15.0335 8.5111 16.0641 8.39583 16.9556 8.6648ZM23.0083 9.46212C23.5481 9.75031 24.2434 10.5476 24.5133 11.2008C24.7178 11.6715 24.7423 11.8541 24.7423 12.6514C24.7423 13.4679 24.7178 13.6216 24.5051 14.1307C24.0225 15.2931 23.1146 16.0232 22.0677 16.0904C21.6996 16.1192 21.5115 16.1 21.5115 16.0232C21.5115 15.9655 21.716 15.0529 21.9613 13.9963C22.2067 12.9396 22.4112 11.9693 22.4112 11.8445C22.4112 11.4794 22.1331 11.2681 21.5687 11.2297L21.0616 11.1912L20.6936 10.6053C20.1455 9.75031 20.1537 9.79834 20.5463 9.56779C21.1025 9.23157 21.2661 9.19315 21.9613 9.23157C22.403 9.25078 22.7466 9.32763 23.0083 9.46212ZM21.0207 12.6514C21.0207 12.7763 19.6303 18.6457 19.5894 18.6937C19.5648 18.7129 19.3849 18.6361 19.1804 18.5208C18.9841 18.4151 18.5588 18.271 18.248 18.2038C16.4322 17.8387 14.6245 19.174 14.0683 21.2778L13.9211 21.8253L11.222 21.8541L8.5228 21.8733L8.43283 21.4315C7.96661 19.2797 6.09356 17.8291 4.23686 18.2038C3.91787 18.271 3.49255 18.4055 3.30443 18.5016L2.95272 18.6841L2.87092 18.3863C2.6419 17.5313 1.55406 12.8339 1.55406 12.709C1.55406 12.5745 2.51922 12.5553 11.2874 12.5553C17.8635 12.5553 21.0207 12.5841 21.0207 12.6514ZM5.83182 19.8464C6.68247 20.3364 7.21412 21.2778 7.26319 22.4209C7.32045 23.6889 6.84605 24.6688 5.90543 25.2067C5.51283 25.4373 5.33289 25.4757 4.78487 25.4757C4.23686 25.4757 4.05692 25.4373 3.66431 25.2067C2.24112 24.3806 1.78308 22.2576 2.7237 20.7975C3.01815 20.346 3.6316 19.8176 4.04056 19.6639C4.46588 19.5102 5.4065 19.6063 5.83182 19.8464ZM18.7142 19.8464C19.2458 20.1634 19.6793 20.6822 19.9329 21.2778C20.121 21.7293 20.1619 21.9502 20.1619 22.5458C20.1537 23.737 19.6548 24.6784 18.7469 25.2067C18.3543 25.4373 18.1743 25.4757 17.6263 25.4757C16.8248 25.4757 16.3258 25.2067 15.7615 24.467C14.7636 23.1702 14.9599 21.1913 16.195 20.125C16.3749 19.9617 16.6857 19.7696 16.8738 19.7023C17.3728 19.5102 18.2725 19.5775 18.7142 19.8464ZM28.742 23.0837C28.8892 23.2566 28.9055 23.3911 28.791 23.6025C28.7256 23.7273 28.2103 23.7466 25.094 23.7754C23.1064 23.785 21.4379 23.785 21.3806 23.7562C21.307 23.7177 21.2988 23.6121 21.3643 23.3239L21.4461 22.93H25.0368C28.1776 22.93 28.6275 22.9492 28.742 23.0837Z" fill="#7286D3"/>
</svg>
