<svg width="25" height="24" viewBox="0 0 25 24" fill="none" xmlns="http://www.w3.org/2000/svg">
<g clipPath="url(#clip0_1867_8388)">
<path d="M23.9958 9.8232L15.5958 3.8232C15.387 3.674 15.1426 3.59961 14.8982 3.59961C14.6538 3.59961 14.4094 3.674 14.2006 3.8232L8.96184 7.56519C9.30862 7.78077 9.59625 8.08161 9.79627 8.444L14.8982 4.79961L23.2982 10.7996H20.8982V21.5996H9.00145L8.90625 22.7996H20.8982C21.561 22.7996 22.0982 22.2624 22.0982 21.5996V11.9996H23.2982C23.8199 11.9996 24.2818 11.6628 24.4406 11.166C24.6002 10.6692 24.4202 10.1264 23.9958 9.8232Z" fill="#7286D3"/>
<path d="M10.0802 15.9856L8.88017 9.38561C8.77658 8.81519 8.27975 8.40039 7.69977 8.40039H2.89977C2.31978 8.40039 1.82296 8.81519 1.71936 9.38598L0.519363 15.986C0.455753 16.336 0.550582 16.6964 0.778582 16.9696C1.00658 17.2428 1.34418 17.4003 1.69977 17.4003H2.46655L2.90375 22.8955C2.95335 23.5192 3.47375 24.0004 4.09977 24.0004H6.49977C7.12578 24.0004 7.64657 23.5192 7.69616 22.8956L8.13299 17.4004H8.89977C9.25578 17.4004 9.59296 17.2424 9.82096 16.9692C10.049 16.696 10.1438 16.336 10.0802 15.9856ZM7.02458 16.2004L6.49977 22.8004H4.09977L3.57496 16.2004H1.69977L2.89977 9.60039H4.69977V13.2508C4.69977 13.5824 4.96818 13.8508 5.29977 13.8508C5.63136 13.8508 5.89977 13.5824 5.89977 13.2508V9.60039H7.69977L8.89977 16.2004H7.02458Z" fill="#7286D3"/>
<path d="M5.29922 0C3.31444 0 1.69922 1.61522 1.69922 3.6C1.69922 5.58478 3.31444 7.2 5.29922 7.2C7.28442 7.2 8.89922 5.5852 8.89922 3.6C8.89922 1.6148 7.28442 0 5.29922 0ZM5.29922 6C3.97364 6 2.89922 4.92558 2.89922 3.6C2.89922 2.27442 3.97364 1.2 5.29922 1.2C6.6248 1.2 7.69922 2.27442 7.69922 3.6C7.69922 4.92558 6.6248 6 5.29922 6Z" fill="#7286D3"/>
</g>
<defs>
<clipPath id="clip0_1867_8388">
<rect width="24" height="24" fill="white" transform="translate(0.5)"/>
</clipPath>
</defs>
</svg>
